<svg xmlns="http://www.w3.org/2000/svg" width="1920" height="1080"><path d="M542,1268L-40,1344L1082,1327Z" fill="#5e9461" stroke="#5e9461" stroke-width="1.51"/><path d="M490,-229L790,-214L1203,-241Z" fill="#bee4ba" stroke="#bee4ba" stroke-width="1.51"/><path d="M1082,1327L-40,1344L1232,1354Z" fill="#4d8a53" stroke="#4d8a53" stroke-width="1.51"/><path d="M490,-229L1203,-241L1464,-272Z" fill="#afdcae" stroke="#afdcae" stroke-width="1.51"/><path d="M77,-241L490,-229L1464,-272Z" fill="#caeac5" stroke="#caeac5" stroke-width="1.51"/><path d="M1568,1286L1347,1329L1807,1272Z" fill="#116d32" stroke="#116d32" stroke-width="1.51"/><path d="M1464,-272L1572,-260L1887,-271Z" fill="#90bf95" stroke="#90bf95" stroke-width="1.51"/><path d="M1807,1272L1347,1329L2074,1276Z" fill="#07652b" stroke="#07652b" stroke-width="1.51"/><path d="M1347,1329L1232,1354L2074,1276Z" fill="#126c32" stroke="#126c32" stroke-width="1.51"/><path d="M1898,1266L1807,1272L2074,1276Z" fill="#005d25" stroke="#005d25" stroke-width="1.51"/><path d="M1997,5L2023,112L2097,-48Z" fill="#719f74" stroke="#719f74" stroke-width="1.51"/><path d="M2023,112L2038,177L2097,-48Z" fill="#6d9c6f" stroke="#6d9c6f" stroke-width="1.51"/><path d="M2038,177L1985,374L2097,377Z" fill="#59955d" stroke="#59955d" stroke-width="1.51"/><path d="M2097,-48L2038,177L2097,377Z" fill="#659868" stroke="#659868" stroke-width="1.51"/><path d="M2097,377L1991,520L2108,593Z" fill="#448a4d" stroke="#448a4d" stroke-width="1.51"/><path d="M1876,923L1993,1102L2118,1050Z" fill="#0c6d30" stroke="#0c6d30" stroke-width="1.51"/><path d="M1984,819L1876,923L2118,1050Z" fill="#147335" stroke="#147335" stroke-width="1.51"/><path d="M2055,1098L2074,1276L2118,1050Z" fill="#015e26" stroke="#015e26" stroke-width="1.51"/><path d="M2093,663L1991,711L2147,830Z" fill="#247c3e" stroke="#247c3e" stroke-width="1.51"/><path d="M1991,711L1984,819L2147,830Z" fill="#1f7b3c" stroke="#1f7b3c" stroke-width="1.51"/><path d="M2097,377L2108,593L2147,830Z" fill="#368144" stroke="#368144" stroke-width="1.51"/><path d="M2097,-48L2097,377L2147,830Z" fill="#4f8c54" stroke="#4f8c54" stroke-width="1.51"/><path d="M1984,819L2118,1050L2147,830Z" fill="#167034" stroke="#167034" stroke-width="1.51"/><path d="M2108,593L2093,663L2147,830Z" fill="#297c3f" stroke="#297c3f" stroke-width="1.51"/><path d="M1887,-271L1997,5L2068,-258Z" fill="#7fa882" stroke="#7fa882" stroke-width="1.51"/><path d="M2055,1098L1993,1102L2074,1276Z" fill="#006027" stroke="#006027" stroke-width="1.51"/><path d="M2068,-258L1997,5L2097,-48Z" fill="#79a17c" stroke="#79a17c" stroke-width="1.51"/><path d="M1985,374L1991,520L2097,377Z" fill="#4d9155" stroke="#4d9155" stroke-width="1.51"/><path d="M1993,1102L2055,1098L2118,1050Z" fill="#06652b" stroke="#06652b" stroke-width="1.51"/><path d="M1991,520L2093,663L2108,593Z" fill="#388646" stroke="#388646" stroke-width="1.51"/><path d="M1887,-271L1810,-118L1997,5Z" fill="#80ae83" stroke="#80ae83" stroke-width="1.51"/><path d="M1997,5L1977,47L2023,112Z" fill="#71a173" stroke="#71a173" stroke-width="1.51"/><path d="M1993,1102L1898,1266L2074,1276Z" fill="#005e26" stroke="#005e26" stroke-width="1.51"/><path d="M1991,520L1991,711L2093,663Z" fill="#348646" stroke="#348646" stroke-width="1.51"/><path d="M1886,277L1985,374L2038,177Z" fill="#5e9c63" stroke="#5e9c63" stroke-width="1.51"/><path d="M1876,923L1842,987L1993,1102Z" fill="#0f7534" stroke="#0f7534" stroke-width="1.51"/><path d="M1572,-260L1742,-226L1887,-271Z" fill="#8bb990" stroke="#8bb990" stroke-width="1.51"/><path d="M1991,520L1837,628L1991,711Z" fill="#378d48" stroke="#378d48" stroke-width="1.51"/><path d="M2023,112L1836,213L2038,177Z" fill="#68a06c" stroke="#68a06c" stroke-width="1.51"/><path d="M1836,213L1886,277L2038,177Z" fill="#65a269" stroke="#65a269" stroke-width="1.51"/><path d="M1817,90L1836,213L1977,47Z" fill="#70a973" stroke="#70a973" stroke-width="1.51"/><path d="M1977,47L1836,213L2023,112Z" fill="#6da370" stroke="#6da370" stroke-width="1.51"/><path d="M1985,374L1810,520L1991,520Z" fill="#4a9653" stroke="#4a9653" stroke-width="1.51"/><path d="M1810,520L1837,628L1991,520Z" fill="#40954e" stroke="#40954e" stroke-width="1.51"/><path d="M1837,628L1984,819L1991,711Z" fill="#298743" stroke="#298743" stroke-width="1.51"/><path d="M1809,1157L1898,1266L1993,1102Z" fill="#00682a" stroke="#00682a" stroke-width="1.51"/><path d="M1810,-118L1977,47L1997,5Z" fill="#78a97b" stroke="#78a97b" stroke-width="1.51"/><path d="M1810,-118L1817,90L1977,47Z" fill="#78ad7c" stroke="#78ad7c" stroke-width="1.51"/><path d="M1837,628L1728,835L1984,819Z" fill="#258b44" stroke="#258b44" stroke-width="1.51"/><path d="M1842,987L1809,1157L1993,1102Z" fill="#087130" stroke="#087130" stroke-width="1.51"/><path d="M1728,835L1876,923L1984,819Z" fill="#1d833e" stroke="#1d833e" stroke-width="1.51"/><path d="M1886,277L1810,520L1985,374Z" fill="#549c5c" stroke="#549c5c" stroke-width="1.51"/><path d="M1747,331L1810,520L1886,277Z" fill="#58a260" stroke="#58a260" stroke-width="1.51"/><path d="M1747,331L1702,441L1810,520Z" fill="#54a35e" stroke="#54a35e" stroke-width="1.51"/><path d="M1742,-226L1810,-118L1887,-271Z" fill="#86b58a" stroke="#86b58a" stroke-width="1.51"/><path d="M1809,1157L1807,1272L1898,1266Z" fill="#01662a" stroke="#01662a" stroke-width="1.51"/><path d="M1836,213L1747,331L1886,277Z" fill="#63a668" stroke="#63a668" stroke-width="1.51"/><path d="M1810,-118L1653,-61L1817,90Z" fill="#7fb483" stroke="#7fb483" stroke-width="1.51"/><path d="M1728,835L1842,987L1876,923Z" fill="#1a813c" stroke="#1a813c" stroke-width="1.51"/><path d="M1817,90L1683,243L1836,213Z" fill="#6dac72" stroke="#6dac72" stroke-width="1.51"/><path d="M1683,243L1747,331L1836,213Z" fill="#66aa6d" stroke="#66aa6d" stroke-width="1.51"/><path d="M1613,754L1728,835L1837,628Z" fill="#2d934a" stroke="#2d934a" stroke-width="1.51"/><path d="M1728,835L1624,899L1842,987Z" fill="#1f8640" stroke="#1f8640" stroke-width="1.51"/><path d="M1624,899L1617,1007L1842,987Z" fill="#1c833f" stroke="#1c833f" stroke-width="1.51"/><path d="M1660,1109L1809,1157L1842,987Z" fill="#0e7734" stroke="#0e7734" stroke-width="1.51"/><path d="M1617,1007L1660,1109L1842,987Z" fill="#167d3a" stroke="#167d3a" stroke-width="1.51"/><path d="M1810,520L1602,482L1837,628Z" fill="#479d55" stroke="#479d55" stroke-width="1.51"/><path d="M1602,482L1613,754L1837,628Z" fill="#3f9c53" stroke="#3f9c53" stroke-width="1.51"/><path d="M1660,1109L1807,1272L1809,1157Z" fill="#07702f" stroke="#07702f" stroke-width="1.51"/><path d="M1702,441L1602,482L1810,520Z" fill="#50a25c" stroke="#50a25c" stroke-width="1.51"/><path d="M1620,79L1683,243L1817,90Z" fill="#74b179" stroke="#74b179" stroke-width="1.51"/><path d="M1653,-61L1620,79L1817,90Z" fill="#7db581" stroke="#7db581" stroke-width="1.51"/><path d="M1660,1109L1568,1286L1807,1272Z" fill="#0c6f31" stroke="#0c6f31" stroke-width="1.51"/><path d="M1742,-226L1653,-61L1810,-118Z" fill="#86b78a" stroke="#86b78a" stroke-width="1.51"/><path d="M1602,482L1489,558L1613,754Z" fill="#47a359" stroke="#47a359" stroke-width="1.51"/><path d="M1572,-260L1653,-61L1742,-226Z" fill="#8bbd91" stroke="#8bbd91" stroke-width="1.51"/><path d="M1683,243L1702,441L1747,331Z" fill="#61aa68" stroke="#61aa68" stroke-width="1.51"/><path d="M1489,558L1501,709L1613,754Z" fill="#3ea156" stroke="#3ea156" stroke-width="1.51"/><path d="M1683,243L1523,259L1702,441Z" fill="#66ae6d" stroke="#66ae6d" stroke-width="1.51"/><path d="M1523,259L1602,482L1702,441Z" fill="#5eac68" stroke="#5eac68" stroke-width="1.51"/><path d="M1613,754L1624,899L1728,835Z" fill="#288f48" stroke="#288f48" stroke-width="1.51"/><path d="M1620,79L1523,259L1683,243Z" fill="#73b579" stroke="#73b579" stroke-width="1.51"/><path d="M1499,1253L1568,1286L1660,1109Z" fill="#137535" stroke="#137535" stroke-width="1.51"/><path d="M269,1269L-40,1344L542,1268Z" fill="#6e9d71" stroke="#6e9d71" stroke-width="1.51"/><path d="M1203,-241L1364,-238L1464,-272Z" fill="#9ccfa1" stroke="#9ccfa1" stroke-width="1.51"/><path d="M1523,259L1425,396L1602,482Z" fill="#64b26d" stroke="#64b26d" stroke-width="1.51"/><path d="M1479,108L1523,259L1620,79Z" fill="#7aba80" stroke="#7aba80" stroke-width="1.51"/><path d="M1613,754L1534,818L1624,899Z" fill="#2b934b" stroke="#2b934b" stroke-width="1.51"/><path d="M1437,-25L1620,79L1653,-61Z" fill="#84bd8a" stroke="#84bd8a" stroke-width="1.51"/><path d="M1572,-260L1437,-25L1653,-61Z" fill="#8dc192" stroke="#8dc192" stroke-width="1.51"/><path d="M1470,1125L1499,1253L1660,1109Z" fill="#157c39" stroke="#157c39" stroke-width="1.51"/><path d="M1617,1007L1512,1046L1660,1109Z" fill="#1a813d" stroke="#1a813d" stroke-width="1.51"/><path d="M1512,1046L1470,1125L1660,1109Z" fill="#1a813d" stroke="#1a813d" stroke-width="1.51"/><path d="M1464,-272L1382,-113L1572,-260Z" fill="#95c79a" stroke="#95c79a" stroke-width="1.51"/><path d="M1382,-113L1437,-25L1572,-260Z" fill="#91c697" stroke="#91c697" stroke-width="1.51"/><path d="M1437,-25L1479,108L1620,79Z" fill="#83be88" stroke="#83be88" stroke-width="1.51"/><path d="M1512,1046L1617,1007L1624,899Z" fill="#208742" stroke="#208742" stroke-width="1.51"/><path d="M1534,818L1512,1046L1624,899Z" fill="#268d47" stroke="#268d47" stroke-width="1.51"/><path d="M1499,1253L1347,1329L1568,1286Z" fill="#177336" stroke="#177336" stroke-width="1.51"/><path d="M1501,709L1534,818L1613,754Z" fill="#329a50" stroke="#329a50" stroke-width="1.51"/><path d="M1425,396L1489,558L1602,482Z" fill="#59ad64" stroke="#59ad64" stroke-width="1.51"/><path d="M77,-241L284,-218L490,-229Z" fill="#e1f3db" stroke="#e1f3db" stroke-width="1.51"/><path d="M1302,879L1366,1052L1512,1046Z" fill="#299149" stroke="#299149" stroke-width="1.51"/><path d="M1302,879L1512,1046L1534,818Z" fill="#2c944b" stroke="#2c944b" stroke-width="1.51"/><path d="M784,1249L542,1268L1082,1327Z" fill="#4c8f53" stroke="#4c8f53" stroke-width="1.51"/><path d="M1387,331L1425,396L1523,259Z" fill="#6cb874" stroke="#6cb874" stroke-width="1.51"/><path d="M1388,278L1387,331L1523,259Z" fill="#71ba78" stroke="#71ba78" stroke-width="1.51"/><path d="M1479,108L1388,278L1523,259Z" fill="#77bb7d" stroke="#77bb7d" stroke-width="1.51"/><path d="M1501,709L1340,734L1534,818Z" fill="#37a054" stroke="#37a054" stroke-width="1.51"/><path d="M1340,734L1302,879L1534,818Z" fill="#369f53" stroke="#369f53" stroke-width="1.51"/><path d="M1364,-238L1382,-113L1464,-272Z" fill="#97cb9d" stroke="#97cb9d" stroke-width="1.51"/><path d="M1489,558L1340,734L1501,709Z" fill="#43a65a" stroke="#43a65a" stroke-width="1.51"/><path d="M1470,1125L1377,1165L1499,1253Z" fill="#1b7f3c" stroke="#1b7f3c" stroke-width="1.51"/><path d="M1366,1052L1470,1125L1512,1046Z" fill="#218842" stroke="#218842" stroke-width="1.51"/><path d="M1425,396L1307,473L1489,558Z" fill="#5db369" stroke="#5db369" stroke-width="1.51"/><path d="M1377,1165L1347,1329L1499,1253Z" fill="#1c7a3a" stroke="#1c7a3a" stroke-width="1.51"/><path d="M1307,473L1248,519L1340,734Z" fill="#56b366" stroke="#56b366" stroke-width="1.51"/><path d="M1437,-25L1309,94L1479,108Z" fill="#87c48c" stroke="#87c48c" stroke-width="1.51"/><path d="M1309,94L1388,278L1479,108Z" fill="#7fc285" stroke="#7fc285" stroke-width="1.51"/><path d="M1307,473L1340,734L1489,558Z" fill="#51ae61" stroke="#51ae61" stroke-width="1.51"/><path d="M1366,1052L1377,1165L1470,1125Z" fill="#218741" stroke="#218741" stroke-width="1.51"/><path d="M1382,-113L1309,94L1437,-25Z" fill="#8ec893" stroke="#8ec893" stroke-width="1.51"/><path d="M1387,331L1307,473L1425,396Z" fill="#68b871" stroke="#68b871" stroke-width="1.51"/><path d="M1302,879L1202,996L1366,1052Z" fill="#30984e" stroke="#30984e" stroke-width="1.51"/><path d="M1232,1354L1347,1329L1377,1165Z" fill="#1f7b3c" stroke="#1f7b3c" stroke-width="1.51"/><path d="M1159,-112L1309,94L1382,-113Z" fill="#94ce9a" stroke="#94ce9a" stroke-width="1.51"/><path d="M1364,-238L1203,-241L1382,-113Z" fill="#9bcfa0" stroke="#9bcfa0" stroke-width="1.51"/><path d="M1223,330L1307,473L1387,331Z" fill="#6dbd76" stroke="#6dbd76" stroke-width="1.51"/><path d="M1309,94L1187,239L1388,278Z" fill="#7fc585" stroke="#7fc585" stroke-width="1.51"/><path d="M1223,330L1387,331L1388,278Z" fill="#73bf7a" stroke="#73bf7a" stroke-width="1.51"/><path d="M1187,239L1223,330L1388,278Z" fill="#79c480" stroke="#79c480" stroke-width="1.51"/><path d="M1141,1137L1232,1354L1377,1165Z" fill="#258642" stroke="#258642" stroke-width="1.51"/><path d="M1248,519L1152,685L1340,734Z" fill="#50b163" stroke="#50b163" stroke-width="1.51"/><path d="M1366,1052L1141,1137L1377,1165Z" fill="#278d45" stroke="#278d45" stroke-width="1.51"/><path d="M1203,-241L1159,-112L1382,-113Z" fill="#9cd2a1" stroke="#9cd2a1" stroke-width="1.51"/><path d="M1224,796L1302,879L1340,734Z" fill="#3ca558" stroke="#3ca558" stroke-width="1.51"/><path d="M1202,996L1141,1137L1366,1052Z" fill="#2f944b" stroke="#2f944b" stroke-width="1.51"/><path d="M1176,153L1187,239L1309,94Z" fill="#88ca8c" stroke="#88ca8c" stroke-width="1.51"/><path d="M1152,685L1224,796L1340,734Z" fill="#44ac5e" stroke="#44ac5e" stroke-width="1.51"/><path d="M1159,-112L1078,103L1176,153Z" fill="#98d299" stroke="#98d299" stroke-width="1.51"/><path d="M790,-214L921,-166L1203,-241Z" fill="#b3deb0" stroke="#b3deb0" stroke-width="1.51"/><path d="M1223,330L1248,519L1307,473Z" fill="#68bd72" stroke="#68bd72" stroke-width="1.51"/><path d="M1159,-112L1176,153L1309,94Z" fill="#92cf96" stroke="#92cf96" stroke-width="1.51"/><path d="M1224,796L1202,996L1302,879Z" fill="#39a055" stroke="#39a055" stroke-width="1.51"/><path d="M1039,-4L1078,103L1159,-112Z" fill="#9fd59f" stroke="#9fd59f" stroke-width="1.51"/><path d="M1021,403L1057,507L1223,330Z" fill="#78c57b" stroke="#78c57b" stroke-width="1.51"/><path d="M1076,990L1202,996L1224,796Z" fill="#3ea156" stroke="#3ea156" stroke-width="1.51"/><path d="M1141,1137L1082,1327L1232,1354Z" fill="#2e8443" stroke="#2e8443" stroke-width="1.51"/><path d="M1223,330L1057,507L1248,519Z" fill="#6ec075" stroke="#6ec075" stroke-width="1.51"/><path d="M1057,507L1152,685L1248,519Z" fill="#61ba6c" stroke="#61ba6c" stroke-width="1.51"/><path d="M921,-166L979,-148L1203,-241Z" fill="#addcac" stroke="#addcac" stroke-width="1.51"/><path d="M1079,302L1021,403L1223,330Z" fill="#7fc881" stroke="#7fc881" stroke-width="1.51"/><path d="M989,816L1076,990L1224,796Z" fill="#48a85d" stroke="#48a85d" stroke-width="1.51"/><path d="M1187,239L1079,302L1223,330Z" fill="#80c884" stroke="#80c884" stroke-width="1.51"/><path d="M1152,685L1052,706L1224,796Z" fill="#4eb163" stroke="#4eb163" stroke-width="1.51"/><path d="M1052,706L989,816L1224,796Z" fill="#4fb062" stroke="#4fb062" stroke-width="1.51"/><path d="M1076,990L1141,1137L1202,996Z" fill="#399950" stroke="#399950" stroke-width="1.51"/><path d="M979,-148L1159,-112L1203,-241Z" fill="#a7d8a8" stroke="#a7d8a8" stroke-width="1.51"/><path d="M1057,507L1052,706L1152,685Z" fill="#5fb96b" stroke="#5fb96b" stroke-width="1.51"/><path d="M1078,103L1079,302L1176,153Z" fill="#8ece8f" stroke="#8ece8f" stroke-width="1.51"/><path d="M1176,153L1079,302L1187,239Z" fill="#87cb89" stroke="#87cb89" stroke-width="1.51"/><path d="M1007,1115L1082,1327L1141,1137Z" fill="#378f49" stroke="#378f49" stroke-width="1.51"/><path d="M1076,990L1007,1115L1141,1137Z" fill="#3e9850" stroke="#3e9850" stroke-width="1.51"/><path d="M979,-148L1039,-4L1159,-112Z" fill="#a7d9a7" stroke="#a7d9a7" stroke-width="1.51"/><path d="M869,867L917,1036L989,816Z" fill="#54ac62" stroke="#54ac62" stroke-width="1.51"/><path d="M979,-148L934,-58L1039,-4Z" fill="#acdba9" stroke="#acdba9" stroke-width="1.51"/><path d="M849,531L875,727L1052,706Z" fill="#69be71" stroke="#69be71" stroke-width="1.51"/><path d="M849,531L1052,706L1057,507Z" fill="#6ec072" stroke="#6ec072" stroke-width="1.51"/><path d="M917,1036L1007,1115L1076,990Z" fill="#469e55" stroke="#469e55" stroke-width="1.51"/><path d="M989,816L917,1036L1076,990Z" fill="#4ca65c" stroke="#4ca65c" stroke-width="1.51"/><path d="M905,140L894,197L1078,103Z" fill="#9dd699" stroke="#9dd699" stroke-width="1.51"/><path d="M1078,103L894,197L1079,302Z" fill="#94d192" stroke="#94d192" stroke-width="1.51"/><path d="M823,1237L784,1249L1082,1327Z" fill="#458d4f" stroke="#458d4f" stroke-width="1.51"/><path d="M1007,1115L877,1164L1082,1327Z" fill="#3f924d" stroke="#3f924d" stroke-width="1.51"/><path d="M877,1164L823,1237L1082,1327Z" fill="#438f4e" stroke="#438f4e" stroke-width="1.51"/><path d="M1039,-4L905,140L1078,103Z" fill="#9fd69c" stroke="#9fd69c" stroke-width="1.51"/><path d="M852,353L1021,403L1079,302Z" fill="#87cd86" stroke="#87cd86" stroke-width="1.51"/><path d="M894,197L852,353L1079,302Z" fill="#91d18e" stroke="#91d18e" stroke-width="1.51"/><path d="M1021,403L849,531L1057,507Z" fill="#7ac77b" stroke="#7ac77b" stroke-width="1.51"/><path d="M875,727L989,816L1052,706Z" fill="#5bb669" stroke="#5bb669" stroke-width="1.51"/><path d="M934,-58L905,140L1039,-4Z" fill="#a6daa2" stroke="#a6daa2" stroke-width="1.51"/><path d="M852,353L849,531L1021,403Z" fill="#85cc83" stroke="#85cc83" stroke-width="1.51"/><path d="M917,1036L877,1164L1007,1115Z" fill="#489d55" stroke="#489d55" stroke-width="1.51"/><path d="M921,-166L934,-58L979,-148Z" fill="#b1deae" stroke="#b1deae" stroke-width="1.51"/><path d="M875,727L869,867L989,816Z" fill="#5db469" stroke="#5db469" stroke-width="1.51"/><path d="M849,531L801,692L875,727Z" fill="#71c277" stroke="#71c277" stroke-width="1.51"/><path d="M773,291L852,353L894,197Z" fill="#99d595" stroke="#99d595" stroke-width="1.51"/><path d="M869,867L696,949L917,1036Z" fill="#5aac65" stroke="#5aac65" stroke-width="1.51"/><path d="M703,131L905,140L934,-58Z" fill="#abdca6" stroke="#abdca6" stroke-width="1.51"/><path d="M674,-53L703,131L934,-58Z" fill="#b6e1b0" stroke="#b6e1b0" stroke-width="1.51"/><path d="M921,-166L790,-214L934,-58Z" fill="#b7e1b3" stroke="#b7e1b3" stroke-width="1.51"/><path d="M790,-214L674,-53L934,-58Z" fill="#bbe3b6" stroke="#bbe3b6" stroke-width="1.51"/><path d="M756,426L849,531L852,353Z" fill="#8ace87" stroke="#8ace87" stroke-width="1.51"/><path d="M696,949L763,1110L917,1036Z" fill="#58a762" stroke="#58a762" stroke-width="1.51"/><path d="M763,1110L877,1164L917,1036Z" fill="#50a05a" stroke="#50a05a" stroke-width="1.51"/><path d="M703,131L894,197L905,140Z" fill="#a5daa0" stroke="#a5daa0" stroke-width="1.51"/><path d="M801,692L869,867L875,727Z" fill="#64ba6f" stroke="#64ba6f" stroke-width="1.51"/><path d="M703,131L773,291L894,197Z" fill="#a4da9e" stroke="#a4da9e" stroke-width="1.51"/><path d="M801,692L677,840L869,867Z" fill="#67b971" stroke="#67b971" stroke-width="1.51"/><path d="M763,1110L823,1237L877,1164Z" fill="#4e9b57" stroke="#4e9b57" stroke-width="1.51"/><path d="M756,426L736,474L849,531Z" fill="#89ce86" stroke="#89ce86" stroke-width="1.51"/><path d="M677,840L696,949L869,867Z" fill="#64b46e" stroke="#64b46e" stroke-width="1.51"/><path d="M763,1110L784,1249L823,1237Z" fill="#509958" stroke="#509958" stroke-width="1.51"/><path d="M736,474L801,692L849,531Z" fill="#7ec97e" stroke="#7ec97e" stroke-width="1.51"/><path d="M773,291L756,426L852,353Z" fill="#95d490" stroke="#95d490" stroke-width="1.51"/><path d="M736,474L628,528L801,692Z" fill="#83cb83" stroke="#83cb83" stroke-width="1.51"/><path d="M637,-76L674,-53L790,-214Z" fill="#c2e6bd" stroke="#c2e6bd" stroke-width="1.51"/><path d="M544,682L644,815L801,692Z" fill="#76c37d" stroke="#76c37d" stroke-width="1.51"/><path d="M628,528L544,682L801,692Z" fill="#81c983" stroke="#81c983" stroke-width="1.51"/><path d="M644,815L677,840L801,692Z" fill="#6ebd77" stroke="#6ebd77" stroke-width="1.51"/><path d="M674,-53L635,107L703,131Z" fill="#b8e3b2" stroke="#b8e3b2" stroke-width="1.51"/><path d="M624,339L756,426L773,291Z" fill="#9bd696" stroke="#9bd696" stroke-width="1.51"/><path d="M763,1110L566,1166L784,1249Z" fill="#589f5e" stroke="#589f5e" stroke-width="1.51"/><path d="M530,-158L637,-76L790,-214Z" fill="#c7e8c1" stroke="#c7e8c1" stroke-width="1.51"/><path d="M490,-229L530,-158L790,-214Z" fill="#ccebc7" stroke="#ccebc7" stroke-width="1.51"/><path d="M703,131L624,339L773,291Z" fill="#a6db9f" stroke="#a6db9f" stroke-width="1.51"/><path d="M566,1166L542,1268L784,1249Z" fill="#5b9b60" stroke="#5b9b60" stroke-width="1.51"/><path d="M560,214L624,339L703,131Z" fill="#addea6" stroke="#addea6" stroke-width="1.51"/><path d="M696,949L545,1050L763,1110Z" fill="#62ab69" stroke="#62ab69" stroke-width="1.51"/><path d="M545,1050L566,1166L763,1110Z" fill="#61a767" stroke="#61a767" stroke-width="1.51"/><path d="M624,339L736,474L756,426Z" fill="#95d491" stroke="#95d491" stroke-width="1.51"/><path d="M624,339L628,528L736,474Z" fill="#95d491" stroke="#95d491" stroke-width="1.51"/><path d="M677,840L644,815L696,949Z" fill="#6bb873" stroke="#6bb873" stroke-width="1.51"/><path d="M635,107L560,214L703,131Z" fill="#b4e1ad" stroke="#b4e1ad" stroke-width="1.51"/><path d="M637,-76L635,107L674,-53Z" fill="#bfe6b8" stroke="#bfe6b8" stroke-width="1.51"/><path d="M644,815L478,1001L696,949Z" fill="#6db674" stroke="#6db674" stroke-width="1.51"/><path d="M478,1001L545,1050L696,949Z" fill="#6ab071" stroke="#6ab071" stroke-width="1.51"/><path d="M624,339L485,447L628,528Z" fill="#9bd696" stroke="#9bd696" stroke-width="1.51"/><path d="M432,67L635,107L637,-76Z" fill="#c1e7ba" stroke="#c1e7ba" stroke-width="1.51"/><path d="M530,-158L400,-66L637,-76Z" fill="#cdebc7" stroke="#cdebc7" stroke-width="1.51"/><path d="M400,-66L432,67L637,-76Z" fill="#caeac4" stroke="#caeac4" stroke-width="1.51"/><path d="M419,797L478,1001L644,815Z" fill="#76bc7c" stroke="#76bc7c" stroke-width="1.51"/><path d="M466,731L419,797L644,815Z" fill="#7cc482" stroke="#7cc482" stroke-width="1.51"/><path d="M544,682L466,731L644,815Z" fill="#7cc582" stroke="#7cc582" stroke-width="1.51"/><path d="M432,67L560,214L635,107Z" fill="#bce4b4" stroke="#bce4b4" stroke-width="1.51"/><path d="M430,1224L269,1269L542,1268Z" fill="#689e6b" stroke="#689e6b" stroke-width="1.51"/><path d="M485,447L544,682L628,528Z" fill="#91d18e" stroke="#91d18e" stroke-width="1.51"/><path d="M560,214L429,249L624,339Z" fill="#afdfa8" stroke="#afdfa8" stroke-width="1.51"/><path d="M429,249L485,447L624,339Z" fill="#aadda3" stroke="#aadda3" stroke-width="1.51"/><path d="M485,447L378,536L544,682Z" fill="#96d393" stroke="#96d393" stroke-width="1.51"/><path d="M432,67L429,249L560,214Z" fill="#bce4b4" stroke="#bce4b4" stroke-width="1.51"/><path d="M430,1224L542,1268L566,1166Z" fill="#639f67" stroke="#639f67" stroke-width="1.51"/><path d="M423,1194L430,1224L566,1166Z" fill="#67a36b" stroke="#67a36b" stroke-width="1.51"/><path d="M545,1050L423,1194L566,1166Z" fill="#67a76c" stroke="#67a76c" stroke-width="1.51"/><path d="M378,536L466,731L544,682Z" fill="#8cce8e" stroke="#8cce8e" stroke-width="1.51"/><path d="M419,797L339,866L478,1001Z" fill="#7cbd82" stroke="#7cbd82" stroke-width="1.51"/><path d="M478,1001L423,1194L545,1050Z" fill="#6cad71" stroke="#6cad71" stroke-width="1.51"/><path d="M490,-229L400,-66L530,-158Z" fill="#d2edcc" stroke="#d2edcc" stroke-width="1.51"/><path d="M378,536L268,689L466,731Z" fill="#92cf93" stroke="#92cf93" stroke-width="1.51"/><path d="M339,866L311,989L478,1001Z" fill="#7ab980" stroke="#7ab980" stroke-width="1.51"/><path d="M311,989L423,1194L478,1001Z" fill="#72b077" stroke="#72b077" stroke-width="1.51"/><path d="M429,249L290,351L485,447Z" fill="#b0dfa9" stroke="#b0dfa9" stroke-width="1.51"/><path d="M307,-106L400,-66L490,-229Z" fill="#d6efd0" stroke="#d6efd0" stroke-width="1.51"/><path d="M284,-218L307,-106L490,-229Z" fill="#dbf1d5" stroke="#dbf1d5" stroke-width="1.51"/><path d="M311,989L311,1188L423,1194Z" fill="#72ac76" stroke="#72ac76" stroke-width="1.51"/><path d="M293,493L378,536L485,447Z" fill="#a2d99e" stroke="#a2d99e" stroke-width="1.51"/><path d="M290,351L293,493L485,447Z" fill="#aadca5" stroke="#aadca5" stroke-width="1.51"/><path d="M304,75L429,249L432,67Z" fill="#c5e9bd" stroke="#c5e9bd" stroke-width="1.51"/><path d="M268,689L419,797L466,731Z" fill="#87ca8d" stroke="#87ca8d" stroke-width="1.51"/><path d="M304,75L247,224L429,249Z" fill="#c4e8bd" stroke="#c4e8bd" stroke-width="1.51"/><path d="M311,1188L269,1269L430,1224Z" fill="#6da370" stroke="#6da370" stroke-width="1.51"/><path d="M400,-66L304,75L432,67Z" fill="#ceecc7" stroke="#ceecc7" stroke-width="1.51"/><path d="M247,224L290,351L429,249Z" fill="#bce5b5" stroke="#bce5b5" stroke-width="1.51"/><path d="M423,1194L311,1188L430,1224Z" fill="#6ba46f" stroke="#6ba46f" stroke-width="1.51"/><path d="M268,689L339,866L419,797Z" fill="#87c88c" stroke="#87c88c" stroke-width="1.51"/><path d="M307,-106L304,75L400,-66Z" fill="#d4eecd" stroke="#d4eecd" stroke-width="1.51"/><path d="M293,493L268,689L378,536Z" fill="#9ed69b" stroke="#9ed69b" stroke-width="1.51"/><path d="M200,530L268,689L293,493Z" fill="#a1d79e" stroke="#a1d79e" stroke-width="1.51"/><path d="M173,57L304,75L307,-106Z" fill="#d5efce" stroke="#d5efce" stroke-width="1.51"/><path d="M311,989L168,1144L311,1188Z" fill="#77b07b" stroke="#77b07b" stroke-width="1.51"/><path d="M268,689L95,810L339,866Z" fill="#8cc991" stroke="#8cc991" stroke-width="1.51"/><path d="M95,810L160,949L339,866Z" fill="#88c38e" stroke="#88c38e" stroke-width="1.51"/><path d="M160,949L311,989L339,866Z" fill="#81bd87" stroke="#81bd87" stroke-width="1.51"/><path d="M127,1222L-40,1344L269,1269Z" fill="#76a179" stroke="#76a179" stroke-width="1.51"/><path d="M290,351L139,389L293,493Z" fill="#b2e0ad" stroke="#b2e0ad" stroke-width="1.51"/><path d="M173,57L247,224L304,75Z" fill="#ceecc7" stroke="#ceecc7" stroke-width="1.51"/><path d="M284,-218L107,-59L307,-106Z" fill="#dff3d9" stroke="#dff3d9" stroke-width="1.51"/><path d="M107,-59L173,57L307,-106Z" fill="#dbf2d5" stroke="#dbf2d5" stroke-width="1.51"/><path d="M160,949L168,1144L311,989Z" fill="#7fb783" stroke="#7fb783" stroke-width="1.51"/><path d="M168,1144L269,1269L311,1188Z" fill="#73a776" stroke="#73a776" stroke-width="1.51"/><path d="M139,389L200,530L293,493Z" fill="#aedda9" stroke="#aedda9" stroke-width="1.51"/><path d="M133,677L95,810L268,689Z" fill="#95d099" stroke="#95d099" stroke-width="1.51"/><path d="M200,530L133,677L268,689Z" fill="#9dd49d" stroke="#9dd49d" stroke-width="1.51"/><path d="M77,-241L107,-59L284,-218Z" fill="#e4f5e0" stroke="#e4f5e0" stroke-width="1.51"/><path d="M247,224L139,389L290,351Z" fill="#bce4b5" stroke="#bce4b5" stroke-width="1.51"/><path d="M168,1144L127,1222L269,1269Z" fill="#76a779" stroke="#76a779" stroke-width="1.51"/><path d="M173,57L77,218L247,224Z" fill="#cdecc7" stroke="#cdecc7" stroke-width="1.51"/><path d="M77,218L50,292L139,389Z" fill="#c5e8bf" stroke="#c5e8bf" stroke-width="1.51"/><path d="M77,218L139,389L247,224Z" fill="#c4e7bd" stroke="#c4e7bd" stroke-width="1.51"/><path d="M160,949L25,1127L168,1144Z" fill="#80b585" stroke="#80b585" stroke-width="1.51"/><path d="M139,389L45,511L200,530Z" fill="#b1deac" stroke="#b1deac" stroke-width="1.51"/><path d="M45,511L133,677L200,530Z" fill="#a7d9a5" stroke="#a7d9a5" stroke-width="1.51"/><path d="M-13,987L25,1127L160,949Z" fill="#87ba8b" stroke="#87ba8b" stroke-width="1.51"/><path d="M107,-59L-64,116L173,57Z" fill="#dcf2d6" stroke="#dcf2d6" stroke-width="1.51"/><path d="M-64,116L77,218L173,57Z" fill="#d6efcf" stroke="#d6efcf" stroke-width="1.51"/><path d="M-36,-48L-64,116L107,-59Z" fill="#e1f3db" stroke="#e1f3db" stroke-width="1.51"/><path d="M25,1127L127,1222L168,1144Z" fill="#7cae80" stroke="#7cae80" stroke-width="1.51"/><path d="M95,810L-13,987L160,949Z" fill="#8cc291" stroke="#8cc291" stroke-width="1.51"/><path d="M77,-241L-42,-225L107,-59Z" fill="#eaf7e5" stroke="#eaf7e5" stroke-width="1.51"/><path d="M-42,-225L-36,-48L107,-59Z" fill="#e8f6e4" stroke="#e8f6e4" stroke-width="1.51"/><path d="M45,511L-27,752L133,677Z" fill="#a3d6a4" stroke="#a3d6a4" stroke-width="1.51"/><path d="M-15,774L95,810L133,677Z" fill="#97d09c" stroke="#97d09c" stroke-width="1.51"/><path d="M-27,752L-15,774L133,677Z" fill="#9ad19f" stroke="#9ad19f" stroke-width="1.51"/><path d="M50,292L-59,397L139,389Z" fill="#c1e6bb" stroke="#c1e6bb" stroke-width="1.51"/><path d="M-59,397L45,511L139,389Z" fill="#bae2b4" stroke="#bae2b4" stroke-width="1.51"/><path d="M25,1127L-40,1344L127,1222Z" fill="#7ca87f" stroke="#7ca87f" stroke-width="1.51"/><path d="M-99,1198L-40,1344L25,1127Z" fill="#7faa82" stroke="#7faa82" stroke-width="1.51"/><path d="M-15,774L-13,987L95,810Z" fill="#92c897" stroke="#92c897" stroke-width="1.51"/><path d="M-160,567L-27,752L45,511Z" fill="#aadaa9" stroke="#aadaa9" stroke-width="1.51"/><path d="M-64,116L50,292L77,218Z" fill="#d0edca" stroke="#d0edca" stroke-width="1.51"/><path d="M-15,774L-154,931L-13,987Z" fill="#92c697" stroke="#92c697" stroke-width="1.51"/><path d="M-208,307L-59,397L50,292Z" fill="#c7e9c2" stroke="#c7e9c2" stroke-width="1.51"/><path d="M-64,116L-208,307L50,292Z" fill="#d0ecca" stroke="#d0ecca" stroke-width="1.51"/><path d="M-59,397L-160,567L45,511Z" fill="#b7e1b3" stroke="#b7e1b3" stroke-width="1.51"/><path d="M-141,415L-160,567L-59,397Z" fill="#bce3b8" stroke="#bce3b8" stroke-width="1.51"/><path d="M-13,987L-99,1198L25,1127Z" fill="#84b589" stroke="#84b589" stroke-width="1.51"/><path d="M-134,111L-208,307L-64,116Z" fill="#d8f0d2" stroke="#d8f0d2" stroke-width="1.51"/><path d="M-134,111L-64,116L-36,-48Z" fill="#dff3da" stroke="#dff3da" stroke-width="1.51"/><path d="M-42,-225L-167,-176L-36,-48Z" fill="#edf8e8" stroke="#edf8e8" stroke-width="1.51"/><path d="M-160,567L-200,745L-27,752Z" fill="#a4d6a7" stroke="#a4d6a7" stroke-width="1.51"/><path d="M-27,752L-205,815L-15,774Z" fill="#9acfa0" stroke="#9acfa0" stroke-width="1.51"/><path d="M-205,815L-154,931L-15,774Z" fill="#98cb9d" stroke="#98cb9d" stroke-width="1.51"/><path d="M-154,931L-99,1198L-13,987Z" fill="#8aba8e" stroke="#8aba8e" stroke-width="1.51"/><path d="M-208,307L-141,415L-59,397Z" fill="#c6e8c0" stroke="#c6e8c0" stroke-width="1.51"/><path d="M-99,1198L-200,1276L-40,1344Z" fill="#7ea581" stroke="#7ea581" stroke-width="1.51"/><path d="M-229,-13L-134,111L-36,-48Z" fill="#e4f5df" stroke="#e4f5df" stroke-width="1.51"/><path d="M-200,745L-205,815L-27,752Z" fill="#9dd1a2" stroke="#9dd1a2" stroke-width="1.51"/><path d="M-167,-176L-229,-13L-36,-48Z" fill="#ebf8e7" stroke="#ebf8e7" stroke-width="1.51"/><path d="M-154,931L-200,1276L-99,1198Z" fill="#87b48b" stroke="#87b48b" stroke-width="1.51"/><path d="M-229,-13L-208,307L-134,111Z" fill="#ddf2d8" stroke="#ddf2d8" stroke-width="1.51"/><path d="M-205,815L-200,1276L-154,931Z" fill="#8fbf94" stroke="#8fbf94" stroke-width="1.51"/><path d="M-208,307L-160,567L-141,415Z" fill="#c0e5bc" stroke="#c0e5bc" stroke-width="1.51"/><path d="M-208,307L-200,745L-160,567Z" fill="#b6e0b3" stroke="#b6e0b3" stroke-width="1.51"/><path d="M-208,307L-205,815L-200,745Z" fill="#aedbae" stroke="#aedbae" stroke-width="1.51"/><path d="M-208,307L-229,-13L-205,815Z" fill="#c8e8c3" stroke="#c8e8c3" stroke-width="1.51"/></svg>